<?xml version="1.0" encoding="UTF-8"?> <svg xmlns="http://www.w3.org/2000/svg" xmlns:xlink="http://www.w3.org/1999/xlink" width="573" height="643" viewBox="0 0 573 643"><defs><rect id="a" width="572" height="642" x="0" y="0" rx="18"></rect></defs><g fill="none" fill-rule="evenodd" transform="translate(.13 .526)"><mask id="b" fill="#fff"><use xlink:href="#a"></use></mask><path fill="red" d="M549.522252,246.467057 L341.496234,242.217079 L273.191253,45.7180386 C266.219104,25.7182719 237.60838,25.0797016 230.441885,45.6902345 L162.109171,242.246164 L-45.9168176,246.468337 C-67.360834,246.94058 -76.2496192,274.134503 -59.1113303,287.134884 L106.689374,412.829418 L46.4397654,611.938206 C39.4120785,635.270947 66.0505588,647.632047 81.0505616,637.077148 L251.829014,518.244721 L422.607537,637.105592 C443.023939,651.24445 464.440293,628.578047 456.606713,609.716721 L396.940921,412.826645 L562.71328,287.13204 C580.963023,273.298957 569.518747,246.910642 549.518767,246.465492 L549.522252,246.467057 Z" mask="url(#b)" opacity=".08"></path><path fill="red" d="M538.522252,236.467057 L330.496234,232.217079 L262.191253,35.7180386 C255.219104,15.7182719 226.60838,15.0797016 219.441885,35.6902345 L151.109171,232.246164 L-56.9168176,236.468337 C-78.360834,236.94058 -87.2496192,264.134503 -70.1113303,277.134884 L95.6893736,402.829418 L35.4397654,601.938206 C28.4120785,625.270947 55.0505588,637.632047 70.0505616,627.077148 L240.829014,508.244721 L411.607537,627.105592 C432.023939,641.24445 453.440293,618.578047 445.606713,599.716721 L385.940921,402.826645 L551.71328,277.13204 C569.963023,263.298957 558.518747,236.910642 538.518767,236.465492 L538.522252,236.467057 Z" mask="url(#b)" opacity=".16"></path><path fill="red" d="M528.522252,226.467057 L320.496234,222.217079 L252.191253,25.7180386 C245.219104,5.71827191 216.60838,5.07970158 209.441885,25.6902345 L141.109171,222.246164 L-66.9168176,226.468337 C-88.360834,226.94058 -97.2496192,254.134503 -80.1113303,267.134884 L85.6893736,392.829418 L25.4397654,591.938206 C18.4120785,615.270947 45.0505588,627.632047 60.0505616,617.077148 L230.829014,498.244721 L401.607537,617.105592 C422.023939,631.24445 443.440293,608.578047 435.606713,589.716721 L375.940921,392.826645 L541.71328,267.13204 C559.963023,253.298957 548.518747,226.910642 528.518767,226.465492 L528.522252,226.467057 Z" mask="url(#b)" opacity=".384"></path><path fill="red" d="M519.522252,216.467057 L311.496234,212.217079 L243.191253,15.7180386 C236.219104,-4.28172809 207.60838,-4.92029842 200.441885,15.6902345 L132.109171,212.246164 L-75.9168176,216.468337 C-97.360834,216.94058 -106.249619,244.134503 -89.1113303,257.134884 L76.6893736,382.829418 L16.4397654,581.938206 C9.4120785,605.270947 36.0505588,617.632047 51.0505616,607.077148 L221.829014,488.244721 L392.607537,607.105592 C413.023939,621.24445 434.440293,598.578047 426.606713,579.716721 L366.940921,382.826645 L532.71328,257.13204 C550.963023,243.298957 539.518747,216.910642 519.518767,216.465492 L519.522252,216.467057 Z" mask="url(#b)"></path></g></svg> 